# xmcd
#
# Track frame offsets:
#	183
#	18548
#	35415
#	49060
#	71555
#	89980
#	114825
#	126180
#	157638
#	171568
#	210305
#	228088
#	263685
#	277850
#
# Disc length: 3971 seconds
#
# Revision: 1
# Processed by: cddbd v1.4PL0 Copyright (c) Steve Scherf et al.
# Submitted via: audiograbber 1.81.03
#
DISCID=b50f810e
DTITLE=Various Artist - Blues Guitarists
DYEAR=1997
DGENRE=Blues
TTITLE0=Byther Smith - Close To You
TTITLE1=Lacy Gibson - Take My Love
TTITLE2=Isaac Scott - On The Road Again
TTITLE3=Buster Benton  - Love Like I Wanna
TTITLE4=Louisiana Red - Wo Ho Baby
TTITLE5=Jimmy Johnson - Looking For My Baby
TTITLE6=Ike Turner and The Bobby Foster Orchestra - Star Above
TTITLE7=Todd Sharpville  - Mandy's Swing
TTITLE8=Lightnin' Hopkins - War Is Starting
TTITLE9=U.P. Wilson - Cold, Cold Feeling
TTITLE10=Roy Gaines and The Crusaders - It's Too Late Brothers
TTITLE11=Luther Allison - Cat Blues
TTITLE12=The Mighty Houserockers ft Les Wilson - I'm A Fool
TTITLE13=Earl Hooker - End Of The Blues
EXTD=
EXTT0=
EXTT1=
EXTT2=
EXTT3=
EXTT4=
EXTT5=
EXTT6=
EXTT7=
EXTT8=
EXTT9=
EXTT10=
EXTT11=
EXTT12=
EXTT13=
PLAYORDER=
